<mxfile host="app.diagrams.net" modified="2021-03-05T06:59:24.454Z" agent="5.0 (Macintosh; Intel Mac OS X 11_2_1) AppleWebKit/537.36 (KHTML, like Gecko) Chrome/88.0.4324.192 Safari/537.36" etag="2LC26OKl8gvGKX0JuGHG" version="14.4.4" type="github" pages="3">
  <diagram id="C5RBs43oDa-KdzZeNtuy" name="合同签约">
    <mxGraphModel dx="3619" dy="3861" grid="1" gridSize="10" guides="1" tooltips="1" connect="1" arrows="1" fold="1" page="1" pageScale="1" pageWidth="827" pageHeight="1169" math="0" shadow="0">
      <root>
        <mxCell id="WIyWlLk6GJQsqaUBKTNV-0" />
        <mxCell id="WIyWlLk6GJQsqaUBKTNV-1" parent="WIyWlLk6GJQsqaUBKTNV-0" />
        <mxCell id="hdKgFiHNt5B8iAR0eTGH-15" value="Lane" style="swimlane;startSize=20;horizontal=0;fillColor=#d5e8d4;strokeColor=#82b366;swimlaneFillColor=#FDFFFA;rounded=1;" parent="WIyWlLk6GJQsqaUBKTNV-1" vertex="1">
          <mxGeometry x="-1560.33" y="-700" width="800" height="250" as="geometry">
            <mxRectangle x="-790" y="-120" width="30" height="50" as="alternateBounds" />
          </mxGeometry>
        </mxCell>
        <mxCell id="39W3sycP4qJBPkeKVRfO-82" value="填写合同" style="whiteSpace=wrap;html=1;fontSize=12;glass=0;strokeWidth=1;shadow=0;fillColor=#dae8fc;strokeColor=#6c8ebf;rounded=1;" parent="hdKgFiHNt5B8iAR0eTGH-15" vertex="1">
          <mxGeometry x="210" y="67" width="120" height="40" as="geometry" />
        </mxCell>
        <mxCell id="WIyWlLk6GJQsqaUBKTNV-3" value="发起合同" style="whiteSpace=wrap;html=1;fontSize=12;glass=0;strokeWidth=1;shadow=0;fillColor=#dae8fc;strokeColor=#6c8ebf;rounded=1;" parent="hdKgFiHNt5B8iAR0eTGH-15" vertex="1">
          <mxGeometry x="210" y="157" width="120" height="40" as="geometry" />
        </mxCell>
        <mxCell id="39W3sycP4qJBPkeKVRfO-96" value="保存" style="whiteSpace=wrap;html=1;fontSize=12;glass=0;strokeWidth=1;shadow=0;fillColor=#dae8fc;strokeColor=#6c8ebf;rounded=1;" parent="hdKgFiHNt5B8iAR0eTGH-15" vertex="1">
          <mxGeometry x="410" y="157" width="120" height="40" as="geometry" />
        </mxCell>
        <mxCell id="39W3sycP4qJBPkeKVRfO-97" value="申请改价格/抽佣比例" style="whiteSpace=wrap;html=1;fontSize=12;glass=0;strokeWidth=1;shadow=0;fillColor=#dae8fc;strokeColor=#6c8ebf;rounded=1;" parent="hdKgFiHNt5B8iAR0eTGH-15" vertex="1">
          <mxGeometry x="610" y="157" width="120" height="40" as="geometry" />
        </mxCell>
        <mxCell id="39W3sycP4qJBPkeKVRfO-85" style="edgeStyle=none;orthogonalLoop=1;jettySize=auto;html=1;exitX=0.5;exitY=1;exitDx=0;exitDy=0;entryX=0.5;entryY=0;entryDx=0;entryDy=0;shadow=0;labelBackgroundColor=none;endArrow=block;endFill=0;endSize=8;strokeWidth=1;jumpStyle=arc;dashed=1;" parent="hdKgFiHNt5B8iAR0eTGH-15" source="39W3sycP4qJBPkeKVRfO-82" target="WIyWlLk6GJQsqaUBKTNV-3" edge="1">
          <mxGeometry relative="1" as="geometry" />
        </mxCell>
        <mxCell id="39W3sycP4qJBPkeKVRfO-136" style="edgeStyle=orthogonalEdgeStyle;jumpStyle=arc;orthogonalLoop=1;jettySize=auto;html=1;exitX=1;exitY=0.5;exitDx=0;exitDy=0;entryX=0.5;entryY=0;entryDx=0;entryDy=0;shadow=0;labelBackgroundColor=none;startArrow=none;startFill=0;endArrow=block;endFill=0;endSize=8;strokeWidth=1;fontSize=9;fontColor=#FF8800;dashed=1;" parent="hdKgFiHNt5B8iAR0eTGH-15" source="39W3sycP4qJBPkeKVRfO-82" target="39W3sycP4qJBPkeKVRfO-96" edge="1">
          <mxGeometry relative="1" as="geometry" />
        </mxCell>
        <mxCell id="39W3sycP4qJBPkeKVRfO-135" style="edgeStyle=orthogonalEdgeStyle;jumpStyle=arc;orthogonalLoop=1;jettySize=auto;html=1;entryX=0.5;entryY=0;entryDx=0;entryDy=0;shadow=0;labelBackgroundColor=none;startArrow=none;startFill=0;endArrow=block;endFill=0;endSize=8;strokeWidth=1;fontSize=9;fontColor=#FF8800;dashed=1;" parent="hdKgFiHNt5B8iAR0eTGH-15" source="39W3sycP4qJBPkeKVRfO-82" target="39W3sycP4qJBPkeKVRfO-97" edge="1">
          <mxGeometry relative="1" as="geometry" />
        </mxCell>
        <mxCell id="C-Nj897b1dJz2E4-wclC-3" value="创建合同" style="whiteSpace=wrap;html=1;fontSize=18;glass=0;strokeWidth=1;shadow=0;fillColor=#6d8764;fontColor=#ffffff;strokeColor=none;rounded=1;" vertex="1" parent="hdKgFiHNt5B8iAR0eTGH-15">
          <mxGeometry width="34" height="250" as="geometry" />
        </mxCell>
        <mxCell id="C-Nj897b1dJz2E4-wclC-5" value="1. 每种类型的首签、续签、升单合同，根据具体的类型而定&lt;br&gt;2. 列表仅显示未签过约的门店可选" style="whiteSpace=wrap;labelBackgroundColor=none;align=left;fillColor=#f9f7ed;spacingLeft=8;strokeColor=none;spacing=2;spacingBottom=0;verticalAlign=middle;html=1;fontColor=#28423E;rounded=1;" vertex="1" parent="hdKgFiHNt5B8iAR0eTGH-15">
          <mxGeometry x="394" y="10" width="400" height="49" as="geometry" />
        </mxCell>
        <mxCell id="hdKgFiHNt5B8iAR0eTGH-7" value="客户签约" style="swimlane;startSize=20;horizontal=0;fillColor=#dae8fc;strokeColor=#6c8ebf;swimlaneFillColor=#FCFFFF;rounded=1;" parent="WIyWlLk6GJQsqaUBKTNV-1" vertex="1">
          <mxGeometry x="-1580.33" y="-90" width="1480" height="180" as="geometry">
            <mxRectangle x="-793" y="930" width="30" height="50" as="alternateBounds" />
          </mxGeometry>
        </mxCell>
        <mxCell id="39W3sycP4qJBPkeKVRfO-140" value="客户" style="shape=umlActor;verticalLabelPosition=bottom;verticalAlign=top;html=1;fillColor=#f8cecc;strokeColor=#b85450;rounded=1;" parent="hdKgFiHNt5B8iAR0eTGH-7" vertex="1">
          <mxGeometry x="93" y="50" width="30" height="60" as="geometry" />
        </mxCell>
        <mxCell id="39W3sycP4qJBPkeKVRfO-107" value="确认提交" style="whiteSpace=wrap;html=1;fontSize=12;glass=0;strokeWidth=1;shadow=0;fillColor=#dae8fc;strokeColor=#6c8ebf;rounded=1;" parent="hdKgFiHNt5B8iAR0eTGH-7" vertex="1">
          <mxGeometry x="530.33" y="70" width="120" height="40" as="geometry" />
        </mxCell>
        <mxCell id="C-Nj897b1dJz2E4-wclC-29" value="阅读合同" style="whiteSpace=wrap;html=1;fontSize=12;glass=0;strokeWidth=1;shadow=0;fillColor=#dae8fc;strokeColor=#6c8ebf;rounded=1;" vertex="1" parent="hdKgFiHNt5B8iAR0eTGH-7">
          <mxGeometry x="160.32999999999993" y="70" width="120" height="40" as="geometry" />
        </mxCell>
        <mxCell id="C-Nj897b1dJz2E4-wclC-34" style="edgeStyle=orthogonalEdgeStyle;orthogonalLoop=1;jettySize=auto;html=1;exitX=1;exitY=0.5;exitDx=0;exitDy=0;entryX=0;entryY=0.5;entryDx=0;entryDy=0;fontColor=#000000;shadow=0;dashed=1;strokeWidth=1;labelBackgroundColor=none;endFill=0;endArrow=block;endSize=8;startSize=8;" edge="1" parent="hdKgFiHNt5B8iAR0eTGH-7" source="C-Nj897b1dJz2E4-wclC-32" target="39W3sycP4qJBPkeKVRfO-107">
          <mxGeometry relative="1" as="geometry" />
        </mxCell>
        <mxCell id="C-Nj897b1dJz2E4-wclC-32" value="电子签名" style="whiteSpace=wrap;html=1;fontSize=12;glass=0;strokeWidth=1;shadow=0;fillColor=#dae8fc;strokeColor=#6c8ebf;rounded=1;" vertex="1" parent="hdKgFiHNt5B8iAR0eTGH-7">
          <mxGeometry x="340.3299999999999" y="70" width="120" height="40" as="geometry" />
        </mxCell>
        <mxCell id="C-Nj897b1dJz2E4-wclC-33" value="" style="edgeStyle=orthogonalEdgeStyle;orthogonalLoop=1;jettySize=auto;html=1;fontColor=#000000;shadow=0;dashed=1;strokeWidth=1;labelBackgroundColor=none;endFill=0;endArrow=block;endSize=8;startSize=8;" edge="1" parent="hdKgFiHNt5B8iAR0eTGH-7" source="C-Nj897b1dJz2E4-wclC-29" target="C-Nj897b1dJz2E4-wclC-32">
          <mxGeometry relative="1" as="geometry" />
        </mxCell>
        <mxCell id="39W3sycP4qJBPkeKVRfO-122" value="" style="ellipse;html=1;shape=endState;fillColor=#008a00;strokeColor=#005700;fontColor=#ffffff;rounded=1;" parent="hdKgFiHNt5B8iAR0eTGH-7" vertex="1">
          <mxGeometry x="820.33" y="75" width="30" height="30" as="geometry" />
        </mxCell>
        <mxCell id="C-Nj897b1dJz2E4-wclC-36" value="客户签约" style="whiteSpace=wrap;html=1;fontSize=18;glass=0;strokeWidth=1;shadow=0;fontColor=#ffffff;strokeColor=none;fillColor=#6C8EBF;rounded=1;" vertex="1" parent="hdKgFiHNt5B8iAR0eTGH-7">
          <mxGeometry width="34" height="180" as="geometry" />
        </mxCell>
        <mxCell id="hdKgFiHNt5B8iAR0eTGH-13" value="合同状态" style="swimlane;startSize=20;horizontal=0;fillColor=#e1d5e7;strokeColor=#9673a6;swimlaneFillColor=#F9F7FF;rounded=1;" parent="WIyWlLk6GJQsqaUBKTNV-1" vertex="1">
          <mxGeometry x="-1580.33" y="-320" width="1480" height="180" as="geometry" />
        </mxCell>
        <mxCell id="39W3sycP4qJBPkeKVRfO-92" value="已撤回" style="whiteSpace=wrap;html=1;fontSize=12;glass=0;strokeWidth=1;shadow=0;fillColor=#e1d5e7;strokeColor=#9673a6;rounded=1;" parent="hdKgFiHNt5B8iAR0eTGH-13" vertex="1">
          <mxGeometry x="90" y="73" width="120" height="40" as="geometry" />
        </mxCell>
        <mxCell id="39W3sycP4qJBPkeKVRfO-86" value="待签署" style="whiteSpace=wrap;html=1;fontSize=12;glass=0;strokeWidth=1;shadow=0;fillColor=#e1d5e7;strokeColor=#9673a6;rounded=1;" parent="hdKgFiHNt5B8iAR0eTGH-13" vertex="1">
          <mxGeometry x="230" y="73" width="120" height="40" as="geometry" />
        </mxCell>
        <mxCell id="39W3sycP4qJBPkeKVRfO-94" value="待发起" style="whiteSpace=wrap;html=1;fontSize=12;glass=0;strokeWidth=1;shadow=0;fillColor=#e1d5e7;strokeColor=#9673a6;rounded=1;" parent="hdKgFiHNt5B8iAR0eTGH-13" vertex="1">
          <mxGeometry x="430" y="73" width="120" height="40" as="geometry" />
        </mxCell>
        <mxCell id="39W3sycP4qJBPkeKVRfO-150" style="edgeStyle=orthogonalEdgeStyle;jumpStyle=arc;orthogonalLoop=1;jettySize=auto;html=1;exitX=0.5;exitY=1;exitDx=0;exitDy=0;shadow=0;labelBackgroundColor=none;startArrow=none;startFill=0;endArrow=block;endFill=0;endSize=8;strokeWidth=1;fontSize=10;fontColor=#4D4D4D;" parent="hdKgFiHNt5B8iAR0eTGH-13" source="39W3sycP4qJBPkeKVRfO-86" target="39W3sycP4qJBPkeKVRfO-92" edge="1">
          <mxGeometry relative="1" as="geometry">
            <mxPoint x="487" y="113" as="sourcePoint" />
            <Array as="points">
              <mxPoint x="290" y="150" />
              <mxPoint x="150" y="150" />
            </Array>
          </mxGeometry>
        </mxCell>
        <mxCell id="39W3sycP4qJBPkeKVRfO-151" value="撤回合同" style="edgeLabel;html=1;align=center;verticalAlign=middle;resizable=0;points=[];fontSize=10;fontColor=#4D4D4D;rounded=1;" parent="39W3sycP4qJBPkeKVRfO-150" vertex="1" connectable="0">
          <mxGeometry x="-0.175" y="1" relative="1" as="geometry">
            <mxPoint x="-19" as="offset" />
          </mxGeometry>
        </mxCell>
        <mxCell id="hdKgFiHNt5B8iAR0eTGH-17" value="已签约" style="whiteSpace=wrap;html=1;fontSize=12;glass=0;strokeWidth=1;shadow=0;fillColor=#e1d5e7;strokeColor=#9673a6;rounded=1;" parent="hdKgFiHNt5B8iAR0eTGH-13" vertex="1">
          <mxGeometry x="680" y="73" width="120" height="40" as="geometry" />
        </mxCell>
        <mxCell id="C-Nj897b1dJz2E4-wclC-28" value="合同管理&lt;br&gt;&amp;amp;&lt;br&gt;状态" style="whiteSpace=wrap;html=1;fontSize=18;glass=0;strokeWidth=1;shadow=0;fontColor=#ffffff;strokeColor=none;fillColor=#836591;rounded=1;" vertex="1" parent="hdKgFiHNt5B8iAR0eTGH-13">
          <mxGeometry width="34" height="180" as="geometry" />
        </mxCell>
        <mxCell id="hdKgFiHNt5B8iAR0eTGH-4" value="" style="edgeStyle=orthogonalEdgeStyle;orthogonalLoop=1;jettySize=auto;html=1;endArrow=block;endFill=0;startSize=8;endSize=8;dashed=1;" parent="WIyWlLk6GJQsqaUBKTNV-1" source="WIyWlLk6GJQsqaUBKTNV-3" target="hdKgFiHNt5B8iAR0eTGH-2" edge="1">
          <mxGeometry relative="1" as="geometry" />
        </mxCell>
        <mxCell id="39W3sycP4qJBPkeKVRfO-160" value="Pool" style="swimlane;html=1;horizontal=0;startSize=20;labelBackgroundColor=#F0F0F0;fontSize=10;align=left;swimlaneFillColor=#FFFBF5;strokeColor=#d6b656;fillColor=#fff2cc;rounded=1;" parent="WIyWlLk6GJQsqaUBKTNV-1" vertex="1">
          <mxGeometry x="-730.33" y="-700" width="630" height="250" as="geometry">
            <mxRectangle x="390" y="-120" width="30" height="50" as="alternateBounds" />
          </mxGeometry>
        </mxCell>
        <mxCell id="39W3sycP4qJBPkeKVRfO-139" value="管理员" style="shape=umlActor;verticalLabelPosition=bottom;verticalAlign=top;html=1;fillColor=#ffcccc;strokeColor=#36393d;rounded=1;" parent="39W3sycP4qJBPkeKVRfO-160" vertex="1">
          <mxGeometry x="70.33" y="90" width="30" height="60" as="geometry" />
        </mxCell>
        <mxCell id="39W3sycP4qJBPkeKVRfO-99" value="合同审批" style="whiteSpace=wrap;html=1;fontSize=12;glass=0;strokeWidth=1;shadow=0;fillColor=#dae8fc;strokeColor=#6c8ebf;rounded=1;" parent="39W3sycP4qJBPkeKVRfO-160" vertex="1">
          <mxGeometry x="260" y="54" width="120" height="40" as="geometry" />
        </mxCell>
        <mxCell id="39W3sycP4qJBPkeKVRfO-101" value="批准" style="rhombus;whiteSpace=wrap;html=1;shadow=0;strokeColor=#d6b656;strokeWidth=1;fillColor=#fff2cc;spacing=6;spacingTop=-4;rounded=1;" parent="39W3sycP4qJBPkeKVRfO-160" vertex="1">
          <mxGeometry x="270" y="129" width="100" height="80" as="geometry" />
        </mxCell>
        <mxCell id="39W3sycP4qJBPkeKVRfO-102" value="" style="edgeStyle=none;orthogonalLoop=1;jettySize=auto;html=1;shadow=0;labelBackgroundColor=none;endArrow=block;endFill=0;endSize=8;strokeColor=#000000;strokeWidth=1;jumpStyle=arc;" parent="39W3sycP4qJBPkeKVRfO-160" source="39W3sycP4qJBPkeKVRfO-99" target="39W3sycP4qJBPkeKVRfO-101" edge="1">
          <mxGeometry x="-10" y="-20" as="geometry" />
        </mxCell>
        <mxCell id="C-Nj897b1dJz2E4-wclC-18" value="审批合同" style="whiteSpace=wrap;html=1;fontSize=18;glass=0;strokeWidth=1;shadow=0;strokeColor=none;fillColor=#D79B00;fontColor=#FFFFFF;rounded=1;" vertex="1" parent="39W3sycP4qJBPkeKVRfO-160">
          <mxGeometry x="0.3299999999999983" width="34" height="250" as="geometry" />
        </mxCell>
        <mxCell id="hdKgFiHNt5B8iAR0eTGH-6" style="edgeStyle=orthogonalEdgeStyle;orthogonalLoop=1;jettySize=auto;html=1;exitX=0;exitY=0.5;exitDx=0;exitDy=0;startArrow=none;startFill=0;endArrow=block;endFill=0;jumpStyle=arc;dashed=1;strokeColor=#ae4132;fillColor=#fad9d5;" parent="WIyWlLk6GJQsqaUBKTNV-1" source="hdKgFiHNt5B8iAR0eTGH-2" edge="1">
          <mxGeometry relative="1" as="geometry">
            <mxPoint x="-1490.33" y="-20" as="targetPoint" />
            <Array as="points">
              <mxPoint x="-1600.33" y="-380" />
              <mxPoint x="-1600.33" y="-20" />
            </Array>
          </mxGeometry>
        </mxCell>
        <mxCell id="2lxDM8EpAbikMeBgvHTp-0" value="向客户发送短信（带合同链接）" style="edgeLabel;html=1;align=center;verticalAlign=middle;resizable=0;points=[];fontColor=#AE4132;rounded=1;" parent="hdKgFiHNt5B8iAR0eTGH-6" vertex="1" connectable="0">
          <mxGeometry x="-0.8021" relative="1" as="geometry">
            <mxPoint x="-22.67" y="-1" as="offset" />
          </mxGeometry>
        </mxCell>
        <mxCell id="hdKgFiHNt5B8iAR0eTGH-66" style="edgeStyle=orthogonalEdgeStyle;jumpStyle=arc;orthogonalLoop=1;jettySize=auto;html=1;exitX=0.5;exitY=1;exitDx=0;exitDy=0;entryX=0.5;entryY=0;entryDx=0;entryDy=0;shadow=0;dashed=1;labelBackgroundColor=none;startSize=8;endArrow=block;endFill=0;endSize=8;strokeWidth=1;" parent="WIyWlLk6GJQsqaUBKTNV-1" source="hdKgFiHNt5B8iAR0eTGH-2" target="39W3sycP4qJBPkeKVRfO-86" edge="1">
          <mxGeometry relative="1" as="geometry" />
        </mxCell>
        <mxCell id="hdKgFiHNt5B8iAR0eTGH-2" value="" style="shape=mxgraph.bpmn.shape;html=1;verticalLabelPosition=bottom;labelBackgroundColor=#ffffff;verticalAlign=top;align=center;perimeter=ellipsePerimeter;outlineConnect=0;outline=standard;symbol=message;strokeColor=#ae4132;fillColor=#fad9d5;direction=east;rounded=1;" parent="WIyWlLk6GJQsqaUBKTNV-1" vertex="1">
          <mxGeometry x="-1310.33" y="-400" width="40" height="40" as="geometry" />
        </mxCell>
        <mxCell id="hdKgFiHNt5B8iAR0eTGH-14" value="Lane" style="swimlane;startSize=20;horizontal=0;fillColor=#d5e8d4;strokeColor=#82b366;swimlaneFillColor=#FDFFFA;rounded=1;" parent="WIyWlLk6GJQsqaUBKTNV-1" vertex="1">
          <mxGeometry x="-1563.33" y="-1060" width="580" height="290" as="geometry">
            <mxRectangle x="-1303" y="-780" width="30" height="50" as="alternateBounds" />
          </mxGeometry>
        </mxCell>
        <mxCell id="hdKgFiHNt5B8iAR0eTGH-40" style="edgeStyle=orthogonalEdgeStyle;jumpStyle=arc;orthogonalLoop=1;jettySize=auto;html=1;exitX=1;exitY=0.5;exitDx=0;exitDy=0;shadow=0;labelBackgroundColor=none;endArrow=block;endFill=0;endSize=8;strokeWidth=1;dashed=1;fontSize=9;fontColor=#FF8800;startFill=0;" parent="hdKgFiHNt5B8iAR0eTGH-14" source="39W3sycP4qJBPkeKVRfO-129" target="hdKgFiHNt5B8iAR0eTGH-39" edge="1">
          <mxGeometry relative="1" as="geometry" />
        </mxCell>
        <mxCell id="39W3sycP4qJBPkeKVRfO-129" value="连锁" style="whiteSpace=wrap;html=1;fontSize=12;glass=0;strokeWidth=1;shadow=0;strokeColor=#314354;fontColor=#ffffff;fillColor=#4F5E6B;rounded=1;" parent="hdKgFiHNt5B8iAR0eTGH-14" vertex="1">
          <mxGeometry x="93" y="80" width="80" height="40" as="geometry" />
        </mxCell>
        <mxCell id="39W3sycP4qJBPkeKVRfO-114" value="A. 只选主店&lt;br&gt;B.选主店+分店" style="whiteSpace=wrap;html=1;fontSize=12;glass=0;strokeWidth=1;shadow=0;fillColor=#dae8fc;strokeColor=#6c8ebf;rounded=1;" parent="hdKgFiHNt5B8iAR0eTGH-14" vertex="1">
          <mxGeometry x="213" y="190" width="120" height="40" as="geometry" />
        </mxCell>
        <mxCell id="hdKgFiHNt5B8iAR0eTGH-43" style="edgeStyle=orthogonalEdgeStyle;jumpStyle=arc;orthogonalLoop=1;jettySize=auto;html=1;exitX=1;exitY=0.5;exitDx=0;exitDy=0;shadow=0;labelBackgroundColor=none;endArrow=block;endFill=0;endSize=8;strokeWidth=1;dashed=1;fontSize=9;fontColor=#FF8800;startFill=0;" parent="hdKgFiHNt5B8iAR0eTGH-14" source="hdKgFiHNt5B8iAR0eTGH-39" edge="1">
          <mxGeometry relative="1" as="geometry">
            <mxPoint x="423" y="200" as="targetPoint" />
          </mxGeometry>
        </mxCell>
        <mxCell id="hdKgFiHNt5B8iAR0eTGH-46" value="是" style="edgeLabel;html=1;align=center;verticalAlign=middle;resizable=0;points=[];rounded=1;" parent="hdKgFiHNt5B8iAR0eTGH-43" vertex="1" connectable="0">
          <mxGeometry x="-0.6074" y="-2" relative="1" as="geometry">
            <mxPoint as="offset" />
          </mxGeometry>
        </mxCell>
        <mxCell id="hdKgFiHNt5B8iAR0eTGH-44" value="否" style="edgeStyle=orthogonalEdgeStyle;jumpStyle=arc;orthogonalLoop=1;jettySize=auto;html=1;exitX=0.5;exitY=1;exitDx=0;exitDy=0;entryX=0.5;entryY=0;entryDx=0;entryDy=0;shadow=0;labelBackgroundColor=none;endArrow=block;endFill=0;endSize=8;strokeWidth=1;dashed=1;fontSize=9;fontColor=#FF8800;startFill=0;" parent="hdKgFiHNt5B8iAR0eTGH-14" source="hdKgFiHNt5B8iAR0eTGH-39" target="39W3sycP4qJBPkeKVRfO-114" edge="1">
          <mxGeometry y="20" relative="1" as="geometry">
            <mxPoint as="offset" />
          </mxGeometry>
        </mxCell>
        <mxCell id="hdKgFiHNt5B8iAR0eTGH-39" value="主店&lt;br&gt;已首签？" style="rhombus;whiteSpace=wrap;html=1;shadow=0;fontFamily=Helvetica;fontSize=12;align=center;strokeWidth=1;spacing=6;spacingTop=-4;fillColor=#fff2cc;strokeColor=#d6b656;rounded=1;" parent="hdKgFiHNt5B8iAR0eTGH-14" vertex="1">
          <mxGeometry x="223" y="60" width="100" height="80" as="geometry" />
        </mxCell>
        <mxCell id="hdKgFiHNt5B8iAR0eTGH-41" value="选分店" style="whiteSpace=wrap;html=1;fontSize=12;glass=0;strokeWidth=1;shadow=0;fillColor=#dae8fc;strokeColor=#6c8ebf;rounded=1;" parent="hdKgFiHNt5B8iAR0eTGH-14" vertex="1">
          <mxGeometry x="363" y="190" width="120" height="40" as="geometry" />
        </mxCell>
        <mxCell id="39W3sycP4qJBPkeKVRfO-128" value="单店" style="whiteSpace=wrap;html=1;fontSize=12;glass=0;strokeWidth=1;shadow=0;strokeColor=#314354;fontColor=#ffffff;fillColor=#6A7D8F;rounded=1;" parent="hdKgFiHNt5B8iAR0eTGH-14" vertex="1">
          <mxGeometry x="93" y="190" width="80" height="40" as="geometry" />
        </mxCell>
        <mxCell id="39W3sycP4qJBPkeKVRfO-126" value="首签" style="whiteSpace=wrap;html=1;fontSize=18;glass=0;strokeWidth=1;shadow=0;fillColor=#6d8764;fontColor=#ffffff;strokeColor=none;rounded=1;" parent="hdKgFiHNt5B8iAR0eTGH-14" vertex="1">
          <mxGeometry width="34" height="290" as="geometry" />
        </mxCell>
        <mxCell id="keEvcWe9_nsdeo778shN-1" value="1. 连锁的主店未新签，必须要选择主店&lt;br&gt;2. 列表仅显示未签过约的门店可选" style="whiteSpace=wrap;labelBackgroundColor=none;align=left;fillColor=#f9f7ed;spacingLeft=8;strokeColor=none;spacing=2;spacingBottom=0;verticalAlign=middle;html=1;fontColor=#28423E;rounded=1;" parent="hdKgFiHNt5B8iAR0eTGH-14" vertex="1">
          <mxGeometry x="333" y="10" width="230" height="40" as="geometry" />
        </mxCell>
        <mxCell id="hdKgFiHNt5B8iAR0eTGH-16" style="edgeStyle=orthogonalEdgeStyle;jumpStyle=arc;orthogonalLoop=1;jettySize=auto;html=1;exitX=1;exitY=0.5;exitDx=0;exitDy=0;entryX=0;entryY=0.5;entryDx=0;entryDy=0;shadow=0;labelBackgroundColor=none;startSize=8;endArrow=block;endFill=0;endSize=8;strokeWidth=1;dashed=1;" parent="WIyWlLk6GJQsqaUBKTNV-1" source="39W3sycP4qJBPkeKVRfO-94" target="39W3sycP4qJBPkeKVRfO-97" edge="1">
          <mxGeometry relative="1" as="geometry" />
        </mxCell>
        <mxCell id="hdKgFiHNt5B8iAR0eTGH-18" style="edgeStyle=orthogonalEdgeStyle;jumpStyle=arc;orthogonalLoop=1;jettySize=auto;html=1;exitX=1;exitY=0.5;exitDx=0;exitDy=0;entryX=0.5;entryY=1;entryDx=0;entryDy=0;shadow=0;labelBackgroundColor=none;startSize=8;endArrow=block;endFill=0;endSize=8;strokeWidth=1;dashed=1;" parent="WIyWlLk6GJQsqaUBKTNV-1" source="39W3sycP4qJBPkeKVRfO-107" target="hdKgFiHNt5B8iAR0eTGH-17" edge="1">
          <mxGeometry relative="1" as="geometry" />
        </mxCell>
        <mxCell id="hdKgFiHNt5B8iAR0eTGH-24" value="Lane" style="swimlane;startSize=20;horizontal=0;fillColor=#d5e8d4;strokeColor=#82b366;swimlaneFillColor=#FDFFFA;arcSize=16;rounded=1;" parent="WIyWlLk6GJQsqaUBKTNV-1" vertex="1">
          <mxGeometry x="-950.33" y="-1060" width="580" height="290" as="geometry">
            <mxRectangle x="-660" y="-740" width="30" height="50" as="alternateBounds" />
          </mxGeometry>
        </mxCell>
        <mxCell id="hdKgFiHNt5B8iAR0eTGH-34" style="edgeStyle=orthogonalEdgeStyle;jumpStyle=arc;orthogonalLoop=1;jettySize=auto;html=1;entryX=0;entryY=0.5;entryDx=0;entryDy=0;shadow=0;labelBackgroundColor=none;endArrow=block;endFill=0;endSize=8;strokeWidth=1;dashed=1;fontSize=9;fontColor=#FF8800;startFill=0;" parent="hdKgFiHNt5B8iAR0eTGH-24" source="39W3sycP4qJBPkeKVRfO-147" target="39W3sycP4qJBPkeKVRfO-119" edge="1">
          <mxGeometry relative="1" as="geometry" />
        </mxCell>
        <mxCell id="39W3sycP4qJBPkeKVRfO-147" value="连锁" style="whiteSpace=wrap;html=1;fontSize=12;glass=0;strokeWidth=1;shadow=0;fillColor=#4F5E6B;strokeColor=#314354;fontColor=#ffffff;rounded=1;" parent="hdKgFiHNt5B8iAR0eTGH-24" vertex="1">
          <mxGeometry x="90" y="80" width="80" height="40" as="geometry" />
        </mxCell>
        <mxCell id="39W3sycP4qJBPkeKVRfO-146" value="单店" style="whiteSpace=wrap;html=1;fontSize=12;glass=0;strokeWidth=1;shadow=0;fillColor=#6A7D8F;strokeColor=#314354;fontColor=#ffffff;rounded=1;" parent="hdKgFiHNt5B8iAR0eTGH-24" vertex="1">
          <mxGeometry x="90" y="190" width="80" height="40" as="geometry" />
        </mxCell>
        <mxCell id="39W3sycP4qJBPkeKVRfO-138" value="选分店" style="whiteSpace=wrap;html=1;fontSize=12;glass=0;strokeWidth=1;shadow=0;fillColor=#dae8fc;strokeColor=#6c8ebf;rounded=1;" parent="hdKgFiHNt5B8iAR0eTGH-24" vertex="1">
          <mxGeometry x="370" y="190" width="120" height="40" as="geometry" />
        </mxCell>
        <mxCell id="hdKgFiHNt5B8iAR0eTGH-35" value="否" style="edgeStyle=orthogonalEdgeStyle;jumpStyle=arc;orthogonalLoop=1;jettySize=auto;html=1;exitX=0.5;exitY=1;exitDx=0;exitDy=0;entryX=0.5;entryY=0;entryDx=0;entryDy=0;shadow=0;labelBackgroundColor=none;endArrow=block;endFill=0;endSize=8;strokeWidth=1;dashed=1;fontSize=9;fontColor=#FF8800;startFill=0;" parent="hdKgFiHNt5B8iAR0eTGH-24" source="39W3sycP4qJBPkeKVRfO-119" target="39W3sycP4qJBPkeKVRfO-141" edge="1">
          <mxGeometry x="-0.5" y="10" relative="1" as="geometry">
            <mxPoint as="offset" />
          </mxGeometry>
        </mxCell>
        <mxCell id="hdKgFiHNt5B8iAR0eTGH-36" style="edgeStyle=orthogonalEdgeStyle;jumpStyle=arc;orthogonalLoop=1;jettySize=auto;html=1;exitX=1;exitY=0.5;exitDx=0;exitDy=0;entryX=0.5;entryY=0;entryDx=0;entryDy=0;shadow=0;labelBackgroundColor=none;endArrow=block;endFill=0;endSize=8;strokeWidth=1;dashed=1;fontSize=9;fontColor=#FF8800;startFill=0;" parent="hdKgFiHNt5B8iAR0eTGH-24" source="39W3sycP4qJBPkeKVRfO-119" target="39W3sycP4qJBPkeKVRfO-138" edge="1">
          <mxGeometry relative="1" as="geometry" />
        </mxCell>
        <mxCell id="hdKgFiHNt5B8iAR0eTGH-38" value="是" style="edgeLabel;html=1;align=center;verticalAlign=middle;resizable=0;points=[];rounded=1;" parent="hdKgFiHNt5B8iAR0eTGH-36" vertex="1" connectable="0">
          <mxGeometry x="-0.6619" y="-1" relative="1" as="geometry">
            <mxPoint as="offset" />
          </mxGeometry>
        </mxCell>
        <mxCell id="39W3sycP4qJBPkeKVRfO-119" value="主店本年&lt;br&gt;已续约？" style="rhombus;whiteSpace=wrap;html=1;shadow=0;fontFamily=Helvetica;fontSize=12;align=center;strokeWidth=1;spacing=6;spacingTop=-4;fillColor=#fff2cc;strokeColor=#d6b656;rounded=1;" parent="hdKgFiHNt5B8iAR0eTGH-24" vertex="1">
          <mxGeometry x="230" y="60" width="100" height="80" as="geometry" />
        </mxCell>
        <mxCell id="39W3sycP4qJBPkeKVRfO-141" value="A. 只选主店&lt;br&gt;B. 选主店+分店" style="whiteSpace=wrap;html=1;fontSize=12;glass=0;strokeWidth=1;shadow=0;fillColor=#dae8fc;strokeColor=#6c8ebf;rounded=1;" parent="hdKgFiHNt5B8iAR0eTGH-24" vertex="1">
          <mxGeometry x="220" y="190" width="120" height="40" as="geometry" />
        </mxCell>
        <mxCell id="keEvcWe9_nsdeo778shN-0" value="续签" style="whiteSpace=wrap;html=1;fontSize=18;glass=0;strokeWidth=1;shadow=0;fillColor=#6d8764;fontColor=#ffffff;strokeColor=none;rounded=1;" parent="hdKgFiHNt5B8iAR0eTGH-24" vertex="1">
          <mxGeometry width="34" height="290" as="geometry" />
        </mxCell>
        <mxCell id="keEvcWe9_nsdeo778shN-4" value="1. 连锁的主店，每年须仅续签一次，才可续签分店&#xa;2. 列表仅显示已签过约的门店可选" style="labelBackgroundColor=none;align=left;fillColor=#f9f7ed;spacingLeft=8;strokeColor=none;spacing=2;spacingBottom=0;verticalAlign=middle;whiteSpace=wrap;fontColor=#28423E;rounded=1;" parent="hdKgFiHNt5B8iAR0eTGH-24" vertex="1">
          <mxGeometry x="340" y="10" width="230" height="60" as="geometry" />
        </mxCell>
        <mxCell id="hdKgFiHNt5B8iAR0eTGH-32" style="edgeStyle=orthogonalEdgeStyle;jumpStyle=arc;orthogonalLoop=1;jettySize=auto;html=1;exitX=0.5;exitY=1;exitDx=0;exitDy=0;shadow=0;labelBackgroundColor=none;endArrow=block;endFill=0;endSize=8;strokeWidth=1;dashed=1;fontSize=9;fontColor=#FF8800;startFill=0;" parent="WIyWlLk6GJQsqaUBKTNV-1" source="39W3sycP4qJBPkeKVRfO-141" edge="1">
          <mxGeometry relative="1" as="geometry">
            <mxPoint x="-1150.33" y="-740" as="targetPoint" />
            <Array as="points">
              <mxPoint x="-650.33" y="-740" />
            </Array>
          </mxGeometry>
        </mxCell>
        <mxCell id="hdKgFiHNt5B8iAR0eTGH-37" style="edgeStyle=orthogonalEdgeStyle;jumpStyle=arc;orthogonalLoop=1;jettySize=auto;html=1;exitX=0.5;exitY=1;exitDx=0;exitDy=0;shadow=0;labelBackgroundColor=none;endArrow=block;endFill=0;endSize=8;strokeWidth=1;dashed=1;fontSize=9;fontColor=#FF8800;startFill=0;" parent="WIyWlLk6GJQsqaUBKTNV-1" source="39W3sycP4qJBPkeKVRfO-138" edge="1">
          <mxGeometry relative="1" as="geometry">
            <mxPoint x="-660.33" y="-740" as="targetPoint" />
            <Array as="points">
              <mxPoint x="-520" y="-740" />
            </Array>
          </mxGeometry>
        </mxCell>
        <mxCell id="hdKgFiHNt5B8iAR0eTGH-45" style="edgeStyle=orthogonalEdgeStyle;jumpStyle=arc;orthogonalLoop=1;jettySize=auto;html=1;shadow=0;labelBackgroundColor=none;endArrow=block;endFill=0;endSize=8;strokeWidth=1;exitX=0.5;exitY=1;exitDx=0;exitDy=0;dashed=1;fontSize=9;fontColor=#FF8800;startFill=0;" parent="WIyWlLk6GJQsqaUBKTNV-1" source="hdKgFiHNt5B8iAR0eTGH-41" edge="1">
          <mxGeometry relative="1" as="geometry">
            <mxPoint x="-1290.33" y="-740" as="targetPoint" />
            <Array as="points">
              <mxPoint x="-1140.33" y="-740" />
              <mxPoint x="-1290.33" y="-740" />
            </Array>
          </mxGeometry>
        </mxCell>
        <mxCell id="ug0V0p2KJz78mTbl74oe-11" style="edgeStyle=orthogonalEdgeStyle;jumpStyle=arc;jumpSize=8;orthogonalLoop=1;jettySize=auto;html=1;dashed=1;startArrow=none;startFill=0;endArrow=block;endFill=0;endSize=8;strokeColor=#000000;fontSize=9;fontColor=#FF8800;shadow=0;strokeWidth=1;labelBackgroundColor=none;" edge="1" parent="WIyWlLk6GJQsqaUBKTNV-1">
          <mxGeometry relative="1" as="geometry">
            <mxPoint x="-520" y="-740" as="targetPoint" />
            <mxPoint x="-210" y="-770" as="sourcePoint" />
            <Array as="points">
              <mxPoint x="-210" y="-770" />
              <mxPoint x="-210" y="-740" />
            </Array>
          </mxGeometry>
        </mxCell>
        <mxCell id="hdKgFiHNt5B8iAR0eTGH-48" value="Lane" style="swimlane;startSize=20;horizontal=0;fillColor=#d5e8d4;strokeColor=#82b366;swimlaneFillColor=#FDFFFA;rounded=1;" parent="WIyWlLk6GJQsqaUBKTNV-1" vertex="1">
          <mxGeometry x="-340.33" y="-1060" width="240.33" height="290" as="geometry" />
        </mxCell>
        <mxCell id="hdKgFiHNt5B8iAR0eTGH-53" value="否" style="edgeStyle=orthogonalEdgeStyle;jumpStyle=arc;orthogonalLoop=1;jettySize=auto;html=1;exitX=0.5;exitY=1;exitDx=0;exitDy=0;entryX=0.5;entryY=0;entryDx=0;entryDy=0;shadow=0;labelBackgroundColor=none;startSize=8;endArrow=block;endFill=0;endSize=8;strokeWidth=1;" parent="hdKgFiHNt5B8iAR0eTGH-48" edge="1">
          <mxGeometry x="-0.5" y="10" relative="1" as="geometry">
            <mxPoint as="offset" />
            <mxPoint x="390" y="100" as="sourcePoint" />
          </mxGeometry>
        </mxCell>
        <mxCell id="keEvcWe9_nsdeo778shN-5" value="升单" style="whiteSpace=wrap;html=1;fontSize=18;glass=0;strokeWidth=1;shadow=0;fillColor=#6d8764;fontColor=#ffffff;strokeColor=none;rounded=1;" parent="hdKgFiHNt5B8iAR0eTGH-48" vertex="1">
          <mxGeometry width="34" height="290" as="geometry" />
        </mxCell>
        <mxCell id="C-Nj897b1dJz2E4-wclC-6" value="A. 单店升单" style="labelBackgroundColor=none;align=left;fillColor=#f9f7ed;spacingLeft=8;strokeColor=none;spacing=2;spacingBottom=0;verticalAlign=middle;whiteSpace=wrap;fontColor=#28423E;fontStyle=1;rounded=1;" vertex="1" parent="hdKgFiHNt5B8iAR0eTGH-48">
          <mxGeometry x="57" y="30" width="160" height="60" as="geometry" />
        </mxCell>
        <mxCell id="C-Nj897b1dJz2E4-wclC-7" value="B. 连锁升级&#xa;&#xa;" style="labelBackgroundColor=none;align=left;fillColor=#f9f7ed;spacingLeft=8;strokeColor=none;spacing=2;spacingBottom=0;verticalAlign=top;whiteSpace=wrap;fontColor=#28423E;horizontal=1;glass=0;labelPosition=center;verticalLabelPosition=middle;spacingRight=6;fontStyle=1;rounded=1;" vertex="1" parent="hdKgFiHNt5B8iAR0eTGH-48">
          <mxGeometry x="57" y="102" width="160" height="157" as="geometry" />
        </mxCell>
        <mxCell id="C-Nj897b1dJz2E4-wclC-19" value="&lt;p style=&quot;line-height: 140%&quot;&gt;&lt;span style=&quot;color: rgb(40 , 66 , 62)&quot;&gt;1.升的是主店的合同版本；&lt;/span&gt;&lt;br style=&quot;padding: 0px ; margin: 0px ; color: rgb(40 , 66 , 62)&quot;&gt;&lt;br style=&quot;padding: 0px ; margin: 0px ; color: rgb(40 , 66 , 62)&quot;&gt;&lt;span style=&quot;color: rgb(40 , 66 , 62)&quot;&gt;2.分店的版本也自动升级；&lt;/span&gt;&lt;br style=&quot;padding: 0px ; margin: 0px ; color: rgb(40 , 66 , 62)&quot;&gt;&lt;br style=&quot;padding: 0px ; margin: 0px ; color: rgb(40 , 66 , 62)&quot;&gt;&lt;span style=&quot;color: rgb(40 , 66 , 62)&quot;&gt;3. 只收主店升版本的费用，在期有效的分店不收升单费&lt;/span&gt;&lt;/p&gt;" style="text;html=1;strokeColor=none;fillColor=none;align=left;verticalAlign=middle;whiteSpace=wrap;glass=0;fontColor=#F7F7F7;rounded=1;" vertex="1" parent="hdKgFiHNt5B8iAR0eTGH-48">
          <mxGeometry x="66.33" y="136" width="143.67" height="105" as="geometry" />
        </mxCell>
        <mxCell id="ug0V0p2KJz78mTbl74oe-0" style="edgeStyle=none;jumpStyle=arc;jumpSize=8;orthogonalLoop=1;jettySize=auto;html=1;exitX=0.5;exitY=0;exitDx=0;exitDy=0;dashed=1;startArrow=none;startFill=0;startSize=10;endArrow=block;endFill=0;endSize=10;strokeColor=#836591;fontSize=12;fontColor=#0E1D38;" edge="1" parent="hdKgFiHNt5B8iAR0eTGH-48" source="C-Nj897b1dJz2E4-wclC-19" target="C-Nj897b1dJz2E4-wclC-19">
          <mxGeometry relative="1" as="geometry" />
        </mxCell>
        <mxCell id="hdKgFiHNt5B8iAR0eTGH-61" style="edgeStyle=orthogonalEdgeStyle;jumpStyle=arc;orthogonalLoop=1;jettySize=auto;html=1;exitX=0.5;exitY=1;exitDx=0;exitDy=0;shadow=0;labelBackgroundColor=none;startSize=8;endArrow=block;endFill=0;endSize=8;strokeWidth=1;dashed=1;strokeColor=#6D8764;" parent="WIyWlLk6GJQsqaUBKTNV-1" source="39W3sycP4qJBPkeKVRfO-96" target="39W3sycP4qJBPkeKVRfO-94" edge="1">
          <mxGeometry relative="1" as="geometry" />
        </mxCell>
        <mxCell id="hdKgFiHNt5B8iAR0eTGH-62" style="edgeStyle=orthogonalEdgeStyle;jumpStyle=arc;orthogonalLoop=1;jettySize=auto;html=1;exitX=1;exitY=0.5;exitDx=0;exitDy=0;entryX=0;entryY=0.5;entryDx=0;entryDy=0;shadow=0;labelBackgroundColor=none;startSize=8;endArrow=block;endFill=0;endSize=8;strokeWidth=1;dashed=1;" parent="WIyWlLk6GJQsqaUBKTNV-1" source="WIyWlLk6GJQsqaUBKTNV-3" target="39W3sycP4qJBPkeKVRfO-94" edge="1">
          <mxGeometry relative="1" as="geometry" />
        </mxCell>
        <mxCell id="hdKgFiHNt5B8iAR0eTGH-63" style="edgeStyle=orthogonalEdgeStyle;jumpStyle=arc;orthogonalLoop=1;jettySize=auto;html=1;shadow=0;dashed=1;labelBackgroundColor=none;startSize=8;endArrow=block;endFill=0;endSize=8;strokeWidth=1;" parent="WIyWlLk6GJQsqaUBKTNV-1" edge="1">
          <mxGeometry relative="1" as="geometry">
            <Array as="points">
              <mxPoint x="-890" y="-410" />
              <mxPoint x="-645" y="-410" />
            </Array>
            <mxPoint x="-890" y="-500" as="sourcePoint" />
            <mxPoint x="-645" y="-520" as="targetPoint" />
          </mxGeometry>
        </mxCell>
        <mxCell id="hdKgFiHNt5B8iAR0eTGH-64" style="edgeStyle=orthogonalEdgeStyle;jumpStyle=arc;orthogonalLoop=1;jettySize=auto;html=1;exitX=0.5;exitY=1;exitDx=0;exitDy=0;shadow=0;dashed=1;labelBackgroundColor=none;startSize=8;endArrow=block;endFill=0;endSize=8;strokeWidth=1;entryX=0.5;entryY=1;entryDx=0;entryDy=0;" parent="WIyWlLk6GJQsqaUBKTNV-1" source="39W3sycP4qJBPkeKVRfO-101" target="39W3sycP4qJBPkeKVRfO-94" edge="1">
          <mxGeometry relative="1" as="geometry">
            <mxPoint x="-980.33" y="-180" as="targetPoint" />
            <Array as="points">
              <mxPoint x="-410.33" y="-170" />
              <mxPoint x="-1090.33" y="-170" />
            </Array>
          </mxGeometry>
        </mxCell>
        <mxCell id="C-Nj897b1dJz2E4-wclC-0" value="是" style="edgeLabel;html=1;align=center;verticalAlign=middle;resizable=0;points=[];rounded=1;" vertex="1" connectable="0" parent="hdKgFiHNt5B8iAR0eTGH-64">
          <mxGeometry x="-0.9544" relative="1" as="geometry">
            <mxPoint as="offset" />
          </mxGeometry>
        </mxCell>
        <mxCell id="39W3sycP4qJBPkeKVRfO-121" value="顾问" style="shape=umlActor;verticalLabelPosition=bottom;verticalAlign=top;html=1;fillColor=#6d8764;strokeColor=#3A5431;fontSize=15;aspect=fixed;rounded=1;" parent="WIyWlLk6GJQsqaUBKTNV-1" vertex="1">
          <mxGeometry x="-1456.33" y="170" width="24" height="48" as="geometry" />
        </mxCell>
        <mxCell id="APXEJxXda2oy3pu0OC8i-1" style="edgeStyle=orthogonalEdgeStyle;orthogonalLoop=1;jettySize=auto;html=1;exitX=0.5;exitY=1;exitDx=0;exitDy=0;shadow=0;dashed=1;fontSize=9;fontColor=#FF8800;strokeWidth=1;labelBackgroundColor=none;endFill=0;endArrow=block;endSize=8;startFill=0;" parent="WIyWlLk6GJQsqaUBKTNV-1" source="39W3sycP4qJBPkeKVRfO-146" edge="1">
          <mxGeometry relative="1" as="geometry">
            <mxPoint x="-820.33" y="-740" as="targetPoint" />
          </mxGeometry>
        </mxCell>
        <mxCell id="keEvcWe9_nsdeo778shN-2" style="edgeStyle=orthogonalEdgeStyle;jumpStyle=arc;orthogonalLoop=1;jettySize=auto;html=1;exitX=0.5;exitY=1;exitDx=0;exitDy=0;shadow=0;labelBackgroundColor=none;startArrow=none;startFill=0;endArrow=block;endFill=0;endSize=8;strokeWidth=1;dashed=1;fontSize=9;fontColor=#FF8800;entryX=0.5;entryY=0;entryDx=0;entryDy=0;" parent="WIyWlLk6GJQsqaUBKTNV-1" source="39W3sycP4qJBPkeKVRfO-114" target="39W3sycP4qJBPkeKVRfO-82" edge="1">
          <mxGeometry relative="1" as="geometry">
            <mxPoint x="-1290.33" y="-700" as="targetPoint" />
            <Array as="points" />
            <mxPoint x="-1290.33" y="-830" as="sourcePoint" />
          </mxGeometry>
        </mxCell>
        <mxCell id="C-Nj897b1dJz2E4-wclC-1" style="edgeStyle=orthogonalEdgeStyle;orthogonalLoop=1;jettySize=auto;html=1;exitX=0;exitY=0.5;exitDx=0;exitDy=0;shadow=0;dashed=1;strokeWidth=1;labelBackgroundColor=none;endFill=0;endArrow=block;endSize=8;fontSize=9;fontColor=#FF8800;startFill=0;" edge="1" parent="WIyWlLk6GJQsqaUBKTNV-1" source="39W3sycP4qJBPkeKVRfO-101">
          <mxGeometry relative="1" as="geometry">
            <mxPoint x="-560.33" y="-740" as="targetPoint" />
          </mxGeometry>
        </mxCell>
        <mxCell id="C-Nj897b1dJz2E4-wclC-2" value="否" style="edgeLabel;html=1;align=center;verticalAlign=middle;resizable=0;points=[];rounded=1;" vertex="1" connectable="0" parent="C-Nj897b1dJz2E4-wclC-1">
          <mxGeometry x="-0.8389" y="-2" relative="1" as="geometry">
            <mxPoint y="-7" as="offset" />
          </mxGeometry>
        </mxCell>
        <mxCell id="C-Nj897b1dJz2E4-wclC-4" style="edgeStyle=orthogonalEdgeStyle;orthogonalLoop=1;jettySize=auto;html=1;exitX=0.5;exitY=1;exitDx=0;exitDy=0;shadow=0;dashed=1;fontSize=9;fontColor=#FF8800;strokeWidth=1;labelBackgroundColor=none;endFill=0;endArrow=block;endSize=8;startFill=0;" edge="1" parent="WIyWlLk6GJQsqaUBKTNV-1" source="39W3sycP4qJBPkeKVRfO-128">
          <mxGeometry relative="1" as="geometry">
            <mxPoint x="-1290.33" y="-740" as="targetPoint" />
            <Array as="points">
              <mxPoint x="-1430.33" y="-740" />
            </Array>
          </mxGeometry>
        </mxCell>
        <mxCell id="C-Nj897b1dJz2E4-wclC-22" value="发起合同" style="whiteSpace=wrap;html=1;fontSize=12;glass=0;strokeWidth=1;shadow=0;rounded=1;" vertex="1" parent="WIyWlLk6GJQsqaUBKTNV-1">
          <mxGeometry x="-1501.33" y="290" width="120" height="40" as="geometry" />
        </mxCell>
        <mxCell id="C-Nj897b1dJz2E4-wclC-23" value="改价" style="whiteSpace=wrap;html=1;fontSize=12;glass=0;strokeWidth=1;shadow=0;rounded=1;" vertex="1" parent="WIyWlLk6GJQsqaUBKTNV-1">
          <mxGeometry x="-1501.33" y="360" width="120" height="40" as="geometry" />
        </mxCell>
        <mxCell id="C-Nj897b1dJz2E4-wclC-25" value="审批" style="whiteSpace=wrap;html=1;fontSize=12;glass=0;strokeWidth=1;shadow=0;rounded=1;" vertex="1" parent="WIyWlLk6GJQsqaUBKTNV-1">
          <mxGeometry x="-1220" y="290" width="120" height="40" as="geometry" />
        </mxCell>
        <mxCell id="C-Nj897b1dJz2E4-wclC-26" value="签约" style="whiteSpace=wrap;html=1;fontSize=12;glass=0;strokeWidth=1;shadow=0;rounded=1;" vertex="1" parent="WIyWlLk6GJQsqaUBKTNV-1">
          <mxGeometry x="-947" y="290" width="120" height="40" as="geometry" />
        </mxCell>
        <mxCell id="C-Nj897b1dJz2E4-wclC-27" value="完成签约" style="whiteSpace=wrap;html=1;fontSize=12;glass=0;strokeWidth=1;shadow=0;rounded=1;" vertex="1" parent="WIyWlLk6GJQsqaUBKTNV-1">
          <mxGeometry x="-1501.33" y="430" width="120" height="40" as="geometry" />
        </mxCell>
        <mxCell id="C-Nj897b1dJz2E4-wclC-35" style="edgeStyle=orthogonalEdgeStyle;orthogonalLoop=1;jettySize=auto;html=1;exitX=1;exitY=0.5;exitDx=0;exitDy=0;fontColor=#AE4132;dashed=1;" edge="1" parent="WIyWlLk6GJQsqaUBKTNV-1" source="39W3sycP4qJBPkeKVRfO-107">
          <mxGeometry relative="1" as="geometry">
            <mxPoint x="-760" as="targetPoint" />
          </mxGeometry>
        </mxCell>
        <mxCell id="C-Nj897b1dJz2E4-wclC-37" value="管理员" style="shape=umlActor;verticalLabelPosition=bottom;verticalAlign=top;html=1;fillColor=#ffe6cc;strokeColor=#d79b00;fontSize=15;aspect=fixed;rounded=1;" vertex="1" parent="WIyWlLk6GJQsqaUBKTNV-1">
          <mxGeometry x="-1175" y="170" width="24" height="48" as="geometry" />
        </mxCell>
        <mxCell id="C-Nj897b1dJz2E4-wclC-39" value="客户" style="shape=umlActor;verticalLabelPosition=bottom;verticalAlign=top;html=1;fillColor=#dae8fc;strokeColor=#6c8ebf;fontSize=15;aspect=fixed;rounded=1;" vertex="1" parent="WIyWlLk6GJQsqaUBKTNV-1">
          <mxGeometry x="-900" y="170" width="24" height="48" as="geometry" />
        </mxCell>
        <mxCell id="C-Nj897b1dJz2E4-wclC-46" style="edgeStyle=orthogonalEdgeStyle;orthogonalLoop=1;jettySize=auto;html=1;exitX=0.653;exitY=-0.038;exitDx=0;exitDy=0;dashed=1;fontSize=15;fontColor=#AE4132;exitPerimeter=0;endArrow=block;endFill=0;strokeColor=#836591;" edge="1" parent="WIyWlLk6GJQsqaUBKTNV-1" source="39W3sycP4qJBPkeKVRfO-94">
          <mxGeometry relative="1" as="geometry">
            <mxPoint x="-1072" y="-450" as="targetPoint" />
            <Array as="points">
              <mxPoint x="-1072" y="-450" />
            </Array>
          </mxGeometry>
        </mxCell>
        <mxCell id="ug0V0p2KJz78mTbl74oe-1" value="客户签约" style="swimlane;startSize=20;horizontal=0;swimlaneFillColor=#ffffff;rounded=1;strokeColor=#CAD3E6;" vertex="1" parent="WIyWlLk6GJQsqaUBKTNV-1">
          <mxGeometry x="-1560.33" y="-1210" width="1480" height="100" as="geometry">
            <mxRectangle x="-793" y="930" width="30" height="50" as="alternateBounds" />
          </mxGeometry>
        </mxCell>
        <mxCell id="ug0V0p2KJz78mTbl74oe-5" style="edgeStyle=orthogonalEdgeStyle;orthogonalLoop=1;jettySize=auto;html=1;exitX=1;exitY=0.5;exitDx=0;exitDy=0;entryX=0;entryY=0.5;entryDx=0;entryDy=0;fontColor=#000000;shadow=0;dashed=1;strokeWidth=1;labelBackgroundColor=none;endFill=0;endArrow=block;endSize=8;startSize=8;" edge="1" parent="ug0V0p2KJz78mTbl74oe-1" source="ug0V0p2KJz78mTbl74oe-6">
          <mxGeometry relative="1" as="geometry">
            <mxPoint x="530.3299999999999" y="90" as="targetPoint" />
          </mxGeometry>
        </mxCell>
        <mxCell id="ug0V0p2KJz78mTbl74oe-7" value="" style="edgeStyle=orthogonalEdgeStyle;orthogonalLoop=1;jettySize=auto;html=1;fontColor=#000000;shadow=0;dashed=1;strokeWidth=1;labelBackgroundColor=none;endFill=0;endArrow=block;endSize=8;startSize=8;" edge="1" parent="ug0V0p2KJz78mTbl74oe-1" source="ug0V0p2KJz78mTbl74oe-4">
          <mxGeometry relative="1" as="geometry">
            <mxPoint x="340.3299999999999" y="90" as="targetPoint" />
          </mxGeometry>
        </mxCell>
        <mxCell id="ug0V0p2KJz78mTbl74oe-9" value="合同类型" style="whiteSpace=wrap;html=1;fontSize=18;glass=0;strokeWidth=1;shadow=0;fontColor=#ffffff;strokeColor=none;fillColor=#6C8EBF;rounded=1;" vertex="1" parent="ug0V0p2KJz78mTbl74oe-1">
          <mxGeometry width="34" height="100" as="geometry" />
        </mxCell>
        <mxCell id="C-Nj897b1dJz2E4-wclC-41" value="伊智软件合同" style="whiteSpace=wrap;html=1;fontSize=12;glass=0;strokeWidth=1;shadow=0;fillColor=#fff2cc;strokeColor=#d6b656;rounded=1;" vertex="1" parent="ug0V0p2KJz78mTbl74oe-1">
          <mxGeometry x="80" y="30" width="200" height="40" as="geometry" />
        </mxCell>
        <mxCell id="C-Nj897b1dJz2E4-wclC-42" value="伊智通合同" style="whiteSpace=wrap;html=1;fontSize=12;glass=0;strokeWidth=1;shadow=0;fillColor=#fff2cc;strokeColor=#d6b656;rounded=1;" vertex="1" parent="ug0V0p2KJz78mTbl74oe-1">
          <mxGeometry x="350.3299999999999" y="30" width="200" height="40" as="geometry" />
        </mxCell>
        <mxCell id="C-Nj897b1dJz2E4-wclC-44" value="美团代运营合同" style="whiteSpace=wrap;html=1;fontSize=12;glass=0;strokeWidth=1;shadow=0;fillColor=#fff2cc;strokeColor=#d6b656;rounded=1;" vertex="1" parent="ug0V0p2KJz78mTbl74oe-1">
          <mxGeometry x="620.33" y="30" width="200" height="40" as="geometry" />
        </mxCell>
        <mxCell id="C-Nj897b1dJz2E4-wclC-43" value="顾问代运营合同" style="whiteSpace=wrap;html=1;fontSize=12;glass=0;strokeWidth=1;shadow=0;fillColor=#fff2cc;strokeColor=#d6b656;rounded=1;" vertex="1" parent="ug0V0p2KJz78mTbl74oe-1">
          <mxGeometry x="890.33" y="30" width="200" height="40" as="geometry" />
        </mxCell>
      </root>
    </mxGraphModel>
  </diagram>
  <diagram id="bb2iNCTvRKmCJJF4cGT_" name="门店 - 合同关系">
    <mxGraphModel dx="1310" dy="1015" grid="1" gridSize="10" guides="1" tooltips="1" connect="1" arrows="1" fold="1" page="1" pageScale="1" pageWidth="827" pageHeight="1169" math="0" shadow="0">
      <root>
        <mxCell id="cldRQHUxAvSEypuHc2Yu-0" />
        <mxCell id="cldRQHUxAvSEypuHc2Yu-1" parent="cldRQHUxAvSEypuHc2Yu-0" />
        <mxCell id="22EN4StXQSH-fi4ENf3c-15" value="门店-合同-版本 ER图" style="swimlane;html=1;childLayout=stackLayout;resizeParent=1;resizeParentMax=0;horizontal=1;startSize=40;horizontalStack=0;rounded=0;glass=0;labelBackgroundColor=none;strokeColor=#000000;fillColor=#F2F8FC;fontSize=14;align=left;spacingLeft=10;fontColor=#0E1D38;" vertex="1" parent="cldRQHUxAvSEypuHc2Yu-1">
          <mxGeometry x="30" y="50" width="480" height="320" as="geometry" />
        </mxCell>
        <mxCell id="22EN4StXQSH-fi4ENf3c-16" value="" style="swimlane;html=1;startSize=0;horizontal=0;" vertex="1" parent="22EN4StXQSH-fi4ENf3c-15">
          <mxGeometry y="40" width="480" height="280" as="geometry">
            <mxRectangle y="40" width="480" height="20" as="alternateBounds" />
          </mxGeometry>
        </mxCell>
        <mxCell id="ll-PSWeQ0McUi9lU14AG-4" value="合同版本" style="rounded=1;whiteSpace=wrap;html=1;fillColor=#dae8fc;strokeColor=#6c8ebf;fontSize=14;" parent="22EN4StXQSH-fi4ENf3c-16" vertex="1">
          <mxGeometry x="320" y="36" width="120" height="44" as="geometry" />
        </mxCell>
        <mxCell id="cldRQHUxAvSEypuHc2Yu-2" value="合同类型" style="rounded=1;whiteSpace=wrap;html=1;fillColor=#dae8fc;strokeColor=#6c8ebf;fontSize=14;" parent="22EN4StXQSH-fi4ENf3c-16" vertex="1">
          <mxGeometry x="50" y="36" width="120" height="44" as="geometry" />
        </mxCell>
        <mxCell id="ll-PSWeQ0McUi9lU14AG-2" value="门店" style="rounded=1;whiteSpace=wrap;html=1;strokeColor=#9673a6;fontSize=14;fillColor=#F8EBFF;" parent="22EN4StXQSH-fi4ENf3c-16" vertex="1">
          <mxGeometry x="190" y="186" width="120" height="44" as="geometry" />
        </mxCell>
        <mxCell id="ll-PSWeQ0McUi9lU14AG-5" value="" style="edgeStyle=none;rounded=0;orthogonalLoop=1;jettySize=auto;html=1;fontSize=14;endArrow=none;endFill=0;fontColor=#007FFF;" parent="22EN4StXQSH-fi4ENf3c-16" source="cldRQHUxAvSEypuHc2Yu-2" target="ll-PSWeQ0McUi9lU14AG-4" edge="1">
          <mxGeometry relative="1" as="geometry" />
        </mxCell>
        <mxCell id="ll-PSWeQ0McUi9lU14AG-17" value="1" style="edgeLabel;html=1;align=center;verticalAlign=middle;resizable=0;points=[];fontSize=12;fontColor=#9933FF;" parent="ll-PSWeQ0McUi9lU14AG-5" vertex="1" connectable="0">
          <mxGeometry x="-0.7422" relative="1" as="geometry">
            <mxPoint as="offset" />
          </mxGeometry>
        </mxCell>
        <mxCell id="ll-PSWeQ0McUi9lU14AG-18" value="N" style="edgeLabel;html=1;align=center;verticalAlign=middle;resizable=0;points=[];fontSize=12;fontColor=#9933FF;" parent="ll-PSWeQ0McUi9lU14AG-5" vertex="1" connectable="0">
          <mxGeometry x="0.8244" y="-1" relative="1" as="geometry">
            <mxPoint y="-1" as="offset" />
          </mxGeometry>
        </mxCell>
        <mxCell id="ll-PSWeQ0McUi9lU14AG-3" value="" style="rounded=0;orthogonalLoop=1;jettySize=auto;html=1;fontSize=14;startArrow=none;startFill=0;endArrow=none;endFill=0;endSize=6;startSize=6;entryX=0.5;entryY=0;entryDx=0;entryDy=0;exitX=0.5;exitY=1;exitDx=0;exitDy=0;fontColor=#007FFF;" parent="22EN4StXQSH-fi4ENf3c-16" source="cldRQHUxAvSEypuHc2Yu-2" target="ll-PSWeQ0McUi9lU14AG-2" edge="1">
          <mxGeometry relative="1" as="geometry" />
        </mxCell>
        <mxCell id="ll-PSWeQ0McUi9lU14AG-13" value="N" style="edgeLabel;html=1;align=center;verticalAlign=middle;resizable=0;points=[];fontSize=12;fontColor=#9933FF;" parent="ll-PSWeQ0McUi9lU14AG-3" vertex="1" connectable="0">
          <mxGeometry x="-0.7904" y="-1" relative="1" as="geometry">
            <mxPoint x="5.9399999999999995" y="2.34" as="offset" />
          </mxGeometry>
        </mxCell>
        <mxCell id="ll-PSWeQ0McUi9lU14AG-14" value="1" style="edgeLabel;html=1;align=center;verticalAlign=middle;resizable=0;points=[];fontSize=12;fontColor=#9933FF;" parent="ll-PSWeQ0McUi9lU14AG-3" vertex="1" connectable="0">
          <mxGeometry x="0.6743" relative="1" as="geometry">
            <mxPoint x="-6.93" y="-5.529999999999999" as="offset" />
          </mxGeometry>
        </mxCell>
        <mxCell id="ll-PSWeQ0McUi9lU14AG-12" style="edgeStyle=none;rounded=0;orthogonalLoop=1;jettySize=auto;html=1;exitX=0.5;exitY=1;exitDx=0;exitDy=0;entryX=0.5;entryY=0;entryDx=0;entryDy=0;startArrow=none;startFill=0;startSize=6;endArrow=none;endFill=0;endSize=6;fontSize=14;fontColor=#007FFF;" parent="22EN4StXQSH-fi4ENf3c-16" source="ll-PSWeQ0McUi9lU14AG-4" target="ll-PSWeQ0McUi9lU14AG-2" edge="1">
          <mxGeometry relative="1" as="geometry" />
        </mxCell>
        <mxCell id="ll-PSWeQ0McUi9lU14AG-15" value="1" style="edgeLabel;html=1;align=center;verticalAlign=middle;resizable=0;points=[];fontColor=#9933FF;" parent="ll-PSWeQ0McUi9lU14AG-12" vertex="1" connectable="0">
          <mxGeometry x="0.7282" y="1" relative="1" as="geometry">
            <mxPoint x="1.75" y="-6.41" as="offset" />
          </mxGeometry>
        </mxCell>
        <mxCell id="ll-PSWeQ0McUi9lU14AG-16" value="1" style="edgeLabel;html=1;align=center;verticalAlign=middle;resizable=0;points=[];fontColor=#9933FF;" parent="ll-PSWeQ0McUi9lU14AG-12" vertex="1" connectable="0">
          <mxGeometry x="-0.7912" y="2" relative="1" as="geometry">
            <mxPoint x="-7.640000000000001" as="offset" />
          </mxGeometry>
        </mxCell>
        <mxCell id="p3wo7nI9Xod3fC34lsyC-60" value="" style="group" vertex="1" connectable="0" parent="cldRQHUxAvSEypuHc2Yu-1">
          <mxGeometry x="30" y="420" width="760" height="640" as="geometry" />
        </mxCell>
        <mxCell id="22EN4StXQSH-fi4ENf3c-43" value="合同类型" style="swimlane;fontStyle=1;align=center;verticalAlign=middle;childLayout=stackLayout;horizontal=1;startSize=30;horizontalStack=0;resizeParent=1;resizeParentMax=0;resizeLast=0;collapsible=1;marginBottom=0;rounded=1;glass=0;labelBackgroundColor=none;strokeColor=#d6b656;fillColor=#fff2cc;fontSize=14;" vertex="1" parent="p3wo7nI9Xod3fC34lsyC-60">
          <mxGeometry x="110" y="340" width="140" height="164" as="geometry" />
        </mxCell>
        <mxCell id="22EN4StXQSH-fi4ENf3c-44" value="伊智软件" style="text;strokeColor=none;fillColor=none;align=left;verticalAlign=middle;spacingLeft=4;spacingRight=4;overflow=hidden;rotatable=0;points=[[0,0.5],[1,0.5]];portConstraint=eastwest;" vertex="1" parent="22EN4StXQSH-fi4ENf3c-43">
          <mxGeometry y="30" width="140" height="32" as="geometry" />
        </mxCell>
        <mxCell id="22EN4StXQSH-fi4ENf3c-53" value="" style="line;strokeWidth=1;fillColor=none;align=left;verticalAlign=middle;spacingTop=-1;spacingLeft=3;spacingRight=3;rotatable=0;labelPosition=right;points=[];portConstraint=eastwest;strokeColor=#D6B656;" vertex="1" parent="22EN4StXQSH-fi4ENf3c-43">
          <mxGeometry y="62" width="140" height="2" as="geometry" />
        </mxCell>
        <mxCell id="22EN4StXQSH-fi4ENf3c-46" value="伊智通软件" style="text;strokeColor=none;fillColor=none;align=left;verticalAlign=middle;spacingLeft=4;spacingRight=4;overflow=hidden;rotatable=0;points=[[0,0.5],[1,0.5]];portConstraint=eastwest;" vertex="1" parent="22EN4StXQSH-fi4ENf3c-43">
          <mxGeometry y="64" width="140" height="32" as="geometry" />
        </mxCell>
        <mxCell id="22EN4StXQSH-fi4ENf3c-54" value="" style="line;strokeWidth=1;fillColor=none;align=left;verticalAlign=middle;spacingTop=-1;spacingLeft=3;spacingRight=3;rotatable=0;labelPosition=right;points=[];portConstraint=eastwest;strokeColor=#D6B656;" vertex="1" parent="22EN4StXQSH-fi4ENf3c-43">
          <mxGeometry y="96" width="140" height="2" as="geometry" />
        </mxCell>
        <mxCell id="22EN4StXQSH-fi4ENf3c-47" value="美团代运营" style="text;strokeColor=none;fillColor=none;align=left;verticalAlign=middle;spacingLeft=4;spacingRight=4;overflow=hidden;rotatable=0;points=[[0,0.5],[1,0.5]];portConstraint=eastwest;" vertex="1" parent="22EN4StXQSH-fi4ENf3c-43">
          <mxGeometry y="98" width="140" height="32" as="geometry" />
        </mxCell>
        <mxCell id="22EN4StXQSH-fi4ENf3c-55" value="" style="line;strokeWidth=1;fillColor=none;align=left;verticalAlign=middle;spacingTop=-1;spacingLeft=3;spacingRight=3;rotatable=0;labelPosition=right;points=[];portConstraint=eastwest;strokeColor=#D6B656;" vertex="1" parent="22EN4StXQSH-fi4ENf3c-43">
          <mxGeometry y="130" width="140" height="2" as="geometry" />
        </mxCell>
        <mxCell id="22EN4StXQSH-fi4ENf3c-48" value="顾问代运营" style="text;strokeColor=none;fillColor=none;align=left;verticalAlign=middle;spacingLeft=4;spacingRight=4;overflow=hidden;rotatable=0;points=[[0,0.5],[1,0.5]];portConstraint=eastwest;" vertex="1" parent="22EN4StXQSH-fi4ENf3c-43">
          <mxGeometry y="132" width="140" height="32" as="geometry" />
        </mxCell>
        <mxCell id="p3wo7nI9Xod3fC34lsyC-41" style="rounded=1;jumpStyle=arc;jumpSize=8;orthogonalLoop=1;jettySize=auto;html=1;exitX=-0.013;exitY=0.112;exitDx=0;exitDy=0;dashed=1;startArrow=none;startFill=0;startSize=10;endArrow=block;endFill=0;endSize=10;strokeColor=#836591;fontSize=12;fontColor=#0E1D38;exitPerimeter=0;entryX=1;entryY=0.5;entryDx=0;entryDy=0;align=left;verticalAlign=bottom;" edge="1" parent="p3wo7nI9Xod3fC34lsyC-60" source="22EN4StXQSH-fi4ENf3c-49" target="22EN4StXQSH-fi4ENf3c-44">
          <mxGeometry relative="1" as="geometry" />
        </mxCell>
        <mxCell id="22EN4StXQSH-fi4ENf3c-49" value="合同版本" style="swimlane;fontStyle=1;align=center;verticalAlign=top;childLayout=stackLayout;horizontal=1;startSize=30;horizontalStack=0;resizeParent=1;resizeParentMax=0;resizeLast=0;collapsible=1;marginBottom=0;rounded=1;glass=0;labelBackgroundColor=none;strokeColor=#6c8ebf;fillColor=#dae8fc;fontSize=14;" vertex="1" parent="p3wo7nI9Xod3fC34lsyC-60">
          <mxGeometry x="490" y="310" width="140" height="130" as="geometry">
            <mxRectangle x="750" y="830" width="90" height="30" as="alternateBounds" />
          </mxGeometry>
        </mxCell>
        <mxCell id="22EN4StXQSH-fi4ENf3c-50" value="Version 1" style="text;strokeColor=none;fillColor=none;align=left;verticalAlign=middle;spacingLeft=4;spacingRight=4;overflow=hidden;rotatable=0;points=[[0,0.5],[1,0.5]];portConstraint=eastwest;" vertex="1" parent="22EN4StXQSH-fi4ENf3c-49">
          <mxGeometry y="30" width="140" height="32" as="geometry" />
        </mxCell>
        <mxCell id="22EN4StXQSH-fi4ENf3c-51" value="" style="line;strokeWidth=1;fillColor=none;align=left;verticalAlign=middle;spacingTop=-1;spacingLeft=3;spacingRight=3;rotatable=0;labelPosition=right;points=[];portConstraint=eastwest;strokeColor=#6C8EBF;" vertex="1" parent="22EN4StXQSH-fi4ENf3c-49">
          <mxGeometry y="62" width="140" height="2" as="geometry" />
        </mxCell>
        <mxCell id="22EN4StXQSH-fi4ENf3c-52" value="Version 2" style="text;strokeColor=none;fillColor=none;align=left;verticalAlign=middle;spacingLeft=4;spacingRight=4;overflow=hidden;rotatable=0;points=[[0,0.5],[1,0.5]];portConstraint=eastwest;" vertex="1" parent="22EN4StXQSH-fi4ENf3c-49">
          <mxGeometry y="64" width="140" height="32" as="geometry" />
        </mxCell>
        <mxCell id="22EN4StXQSH-fi4ENf3c-62" value="" style="line;strokeWidth=1;fillColor=none;align=left;verticalAlign=middle;spacingTop=-1;spacingLeft=3;spacingRight=3;rotatable=0;labelPosition=right;points=[];portConstraint=eastwest;strokeColor=#6C8EBF;" vertex="1" parent="22EN4StXQSH-fi4ENf3c-49">
          <mxGeometry y="96" width="140" height="2" as="geometry" />
        </mxCell>
        <mxCell id="22EN4StXQSH-fi4ENf3c-57" value="..." style="text;strokeColor=none;fillColor=none;align=left;verticalAlign=middle;spacingLeft=4;spacingRight=4;overflow=hidden;rotatable=0;points=[[0,0.5],[1,0.5]];portConstraint=eastwest;" vertex="1" parent="22EN4StXQSH-fi4ENf3c-49">
          <mxGeometry y="98" width="140" height="32" as="geometry" />
        </mxCell>
        <mxCell id="22EN4StXQSH-fi4ENf3c-68" value="门店" style="swimlane;rounded=1;labelBackgroundColor=none;strokeColor=#9673a6;fillColor=#F8EBFF;fontSize=14;fontColor=#000000;align=left;startSize=26;spacingLeft=10;" vertex="1" parent="p3wo7nI9Xod3fC34lsyC-60">
          <mxGeometry x="240" y="80" width="280" height="190" as="geometry">
            <mxRectangle x="650" y="860" width="70" height="26" as="alternateBounds" />
          </mxGeometry>
        </mxCell>
        <mxCell id="p3wo7nI9Xod3fC34lsyC-0" value="连锁" style="rounded=1;whiteSpace=wrap;html=1;fontSize=12;glass=0;strokeWidth=1;shadow=0;fillColor=#4F5E6B;fontColor=#ffffff;strokeColor=none;" vertex="1" parent="22EN4StXQSH-fi4ENf3c-68">
          <mxGeometry x="103" y="90" width="64" height="32" as="geometry" />
        </mxCell>
        <mxCell id="p3wo7nI9Xod3fC34lsyC-1" value="单店" style="rounded=1;whiteSpace=wrap;html=1;fontSize=12;glass=0;strokeWidth=1;shadow=0;fillColor=#6A7D8F;fontColor=#ffffff;strokeColor=none;" vertex="1" parent="22EN4StXQSH-fi4ENf3c-68">
          <mxGeometry x="20" y="90" width="64" height="32" as="geometry" />
        </mxCell>
        <mxCell id="p3wo7nI9Xod3fC34lsyC-3" style="rounded=0;orthogonalLoop=1;jettySize=auto;html=1;exitX=0.5;exitY=0;exitDx=0;exitDy=0;entryX=0.5;entryY=1;entryDx=0;entryDy=0;dashed=1;endArrow=block;endFill=0;strokeColor=#836591;fontSize=14;fontColor=#0E1D38;edgeStyle=orthogonalEdgeStyle;" edge="1" parent="22EN4StXQSH-fi4ENf3c-68" source="p3wo7nI9Xod3fC34lsyC-2" target="p3wo7nI9Xod3fC34lsyC-34">
          <mxGeometry relative="1" as="geometry">
            <Array as="points" />
          </mxGeometry>
        </mxCell>
        <mxCell id="p3wo7nI9Xod3fC34lsyC-4" value="版本依赖" style="edgeLabel;html=1;align=center;verticalAlign=middle;resizable=0;points=[];fontSize=12;fontColor=#0E1D38;" vertex="1" connectable="0" parent="p3wo7nI9Xod3fC34lsyC-3">
          <mxGeometry x="-0.1552" y="-1" relative="1" as="geometry">
            <mxPoint as="offset" />
          </mxGeometry>
        </mxCell>
        <mxCell id="p3wo7nI9Xod3fC34lsyC-36" style="edgeStyle=orthogonalEdgeStyle;rounded=0;jumpStyle=arc;jumpSize=8;orthogonalLoop=1;jettySize=auto;html=1;dashed=1;startArrow=none;startFill=0;endArrow=none;endFill=0;strokeColor=#836591;fontSize=12;fontColor=#0E1D38;" edge="1" parent="22EN4StXQSH-fi4ENf3c-68" source="p3wo7nI9Xod3fC34lsyC-2" target="p3wo7nI9Xod3fC34lsyC-0">
          <mxGeometry relative="1" as="geometry" />
        </mxCell>
        <mxCell id="p3wo7nI9Xod3fC34lsyC-2" value="分店" style="rounded=1;whiteSpace=wrap;html=1;fontSize=12;glass=0;strokeWidth=1;shadow=0;fillColor=#f5f5f5;fontColor=#333333;strokeColor=#ABABAB;" vertex="1" parent="22EN4StXQSH-fi4ENf3c-68">
          <mxGeometry x="180" y="130" width="64" height="24" as="geometry" />
        </mxCell>
        <mxCell id="p3wo7nI9Xod3fC34lsyC-34" value="主店" style="rounded=1;whiteSpace=wrap;html=1;fontSize=12;glass=0;strokeWidth=1;shadow=0;fillColor=#f5f5f5;fontColor=#333333;strokeColor=#ABABAB;" vertex="1" parent="22EN4StXQSH-fi4ENf3c-68">
          <mxGeometry x="180" y="50" width="64" height="24" as="geometry" />
        </mxCell>
        <mxCell id="p3wo7nI9Xod3fC34lsyC-35" style="edgeStyle=orthogonalEdgeStyle;rounded=0;jumpStyle=arc;jumpSize=8;orthogonalLoop=1;jettySize=auto;html=1;dashed=1;startArrow=none;startFill=0;endArrow=none;endFill=0;strokeColor=#836591;fontSize=12;fontColor=#0E1D38;entryX=0.5;entryY=0;entryDx=0;entryDy=0;" edge="1" parent="22EN4StXQSH-fi4ENf3c-68" source="p3wo7nI9Xod3fC34lsyC-34" target="p3wo7nI9Xod3fC34lsyC-0">
          <mxGeometry relative="1" as="geometry">
            <mxPoint x="170" y="76" as="targetPoint" />
            <Array as="points">
              <mxPoint x="135" y="66" />
            </Array>
          </mxGeometry>
        </mxCell>
        <mxCell id="p3wo7nI9Xod3fC34lsyC-15" style="rounded=1;orthogonalLoop=1;jettySize=auto;html=1;exitX=0.5;exitY=0;exitDx=0;exitDy=0;entryX=0;entryY=0.5;entryDx=0;entryDy=0;endArrow=block;strokeColor=#836591;fontSize=12;fontColor=#0E1D38;jumpStyle=arc;jumpSize=8;dashed=1;startArrow=none;startFill=0;edgeStyle=orthogonalEdgeStyle;align=left;verticalAlign=bottom;endSize=10;startSize=10;endFill=0;" edge="1" parent="p3wo7nI9Xod3fC34lsyC-60" source="22EN4StXQSH-fi4ENf3c-43" target="22EN4StXQSH-fi4ENf3c-68">
          <mxGeometry relative="1" as="geometry" />
        </mxCell>
        <mxCell id="p3wo7nI9Xod3fC34lsyC-43" style="edgeStyle=none;rounded=1;jumpStyle=arc;jumpSize=8;orthogonalLoop=1;jettySize=auto;html=1;exitX=-0.009;exitY=0.125;exitDx=0;exitDy=0;dashed=1;startArrow=none;startFill=0;startSize=10;endArrow=block;endFill=0;endSize=10;strokeColor=#836591;fontSize=12;fontColor=#0E1D38;align=left;verticalAlign=bottom;exitPerimeter=0;entryX=1;entryY=0.5;entryDx=0;entryDy=0;" edge="1" parent="p3wo7nI9Xod3fC34lsyC-60" source="p3wo7nI9Xod3fC34lsyC-19" target="22EN4StXQSH-fi4ENf3c-46">
          <mxGeometry relative="1" as="geometry" />
        </mxCell>
        <mxCell id="p3wo7nI9Xod3fC34lsyC-19" value="合同版本" style="swimlane;fontStyle=1;align=center;verticalAlign=top;childLayout=stackLayout;horizontal=1;startSize=30;horizontalStack=0;resizeParent=1;resizeParentMax=0;resizeLast=0;collapsible=1;marginBottom=0;rounded=1;glass=0;labelBackgroundColor=none;strokeColor=#6c8ebf;fillColor=#dae8fc;fontSize=14;" vertex="1" parent="p3wo7nI9Xod3fC34lsyC-60">
          <mxGeometry x="490" y="450" width="140" height="130" as="geometry">
            <mxRectangle x="750" y="970" width="90" height="30" as="alternateBounds" />
          </mxGeometry>
        </mxCell>
        <mxCell id="p3wo7nI9Xod3fC34lsyC-20" value="Version 1" style="text;strokeColor=none;fillColor=none;align=left;verticalAlign=middle;spacingLeft=4;spacingRight=4;overflow=hidden;rotatable=0;points=[[0,0.5],[1,0.5]];portConstraint=eastwest;" vertex="1" parent="p3wo7nI9Xod3fC34lsyC-19">
          <mxGeometry y="30" width="140" height="32" as="geometry" />
        </mxCell>
        <mxCell id="p3wo7nI9Xod3fC34lsyC-21" value="" style="line;strokeWidth=1;fillColor=none;align=left;verticalAlign=middle;spacingTop=-1;spacingLeft=3;spacingRight=3;rotatable=0;labelPosition=right;points=[];portConstraint=eastwest;strokeColor=#6C8EBF;" vertex="1" parent="p3wo7nI9Xod3fC34lsyC-19">
          <mxGeometry y="62" width="140" height="2" as="geometry" />
        </mxCell>
        <mxCell id="p3wo7nI9Xod3fC34lsyC-22" value="Version 2" style="text;strokeColor=none;fillColor=none;align=left;verticalAlign=middle;spacingLeft=4;spacingRight=4;overflow=hidden;rotatable=0;points=[[0,0.5],[1,0.5]];portConstraint=eastwest;" vertex="1" parent="p3wo7nI9Xod3fC34lsyC-19">
          <mxGeometry y="64" width="140" height="32" as="geometry" />
        </mxCell>
        <mxCell id="p3wo7nI9Xod3fC34lsyC-23" value="" style="line;strokeWidth=1;fillColor=none;align=left;verticalAlign=middle;spacingTop=-1;spacingLeft=3;spacingRight=3;rotatable=0;labelPosition=right;points=[];portConstraint=eastwest;strokeColor=#6C8EBF;" vertex="1" parent="p3wo7nI9Xod3fC34lsyC-19">
          <mxGeometry y="96" width="140" height="2" as="geometry" />
        </mxCell>
        <mxCell id="p3wo7nI9Xod3fC34lsyC-24" value="..." style="text;strokeColor=none;fillColor=none;align=left;verticalAlign=middle;spacingLeft=4;spacingRight=4;overflow=hidden;rotatable=0;points=[[0,0.5],[1,0.5]];portConstraint=eastwest;" vertex="1" parent="p3wo7nI9Xod3fC34lsyC-19">
          <mxGeometry y="98" width="140" height="32" as="geometry" />
        </mxCell>
        <mxCell id="p3wo7nI9Xod3fC34lsyC-26" style="edgeStyle=orthogonalEdgeStyle;rounded=1;orthogonalLoop=1;jettySize=auto;html=1;endArrow=block;strokeColor=#836591;fontSize=12;fontColor=#0E1D38;jumpStyle=arc;jumpSize=8;dashed=1;align=left;verticalAlign=bottom;endSize=10;startFill=0;startArrow=none;startSize=10;endFill=0;" edge="1" parent="p3wo7nI9Xod3fC34lsyC-60" source="p3wo7nI9Xod3fC34lsyC-20">
          <mxGeometry relative="1" as="geometry">
            <mxPoint x="520" y="200" as="targetPoint" />
            <Array as="points">
              <mxPoint x="680" y="496" />
              <mxPoint x="680" y="200" />
            </Array>
          </mxGeometry>
        </mxCell>
        <mxCell id="p3wo7nI9Xod3fC34lsyC-16" style="rounded=1;orthogonalLoop=1;jettySize=auto;html=1;exitX=1;exitY=0.5;exitDx=0;exitDy=0;entryX=1;entryY=0.5;entryDx=0;entryDy=0;endArrow=block;strokeColor=#836591;fontSize=12;fontColor=#0E1D38;edgeStyle=orthogonalEdgeStyle;jumpStyle=arc;jumpSize=8;dashed=1;align=left;verticalAlign=bottom;endSize=10;startFill=0;startArrow=none;startSize=10;endFill=0;" edge="1" parent="p3wo7nI9Xod3fC34lsyC-60" source="22EN4StXQSH-fi4ENf3c-50" target="22EN4StXQSH-fi4ENf3c-68">
          <mxGeometry relative="1" as="geometry" />
        </mxCell>
        <mxCell id="p3wo7nI9Xod3fC34lsyC-33" style="edgeStyle=orthogonalEdgeStyle;rounded=1;orthogonalLoop=1;jettySize=auto;html=1;exitX=1;exitY=0.5;exitDx=0;exitDy=0;entryX=0.5;entryY=1;entryDx=0;entryDy=0;endArrow=block;strokeColor=#836591;fontSize=12;fontColor=#0E1D38;jumpStyle=arc;jumpSize=8;dashed=1;align=left;verticalAlign=bottom;endSize=10;startFill=0;startArrow=none;startSize=10;endFill=0;" edge="1" parent="p3wo7nI9Xod3fC34lsyC-60" source="22EN4StXQSH-fi4ENf3c-48" target="22EN4StXQSH-fi4ENf3c-68">
          <mxGeometry relative="1" as="geometry" />
        </mxCell>
        <mxCell id="p3wo7nI9Xod3fC34lsyC-44" value="门店 - 合同 关系图" style="swimlane;html=1;childLayout=stackLayout;resizeParent=1;resizeParentMax=0;horizontal=1;startSize=40;horizontalStack=0;rounded=0;glass=0;labelBackgroundColor=none;strokeColor=#000000;fillColor=#F2F8FC;fontSize=14;align=left;spacingLeft=10;fontColor=#0E1D38;" vertex="1" parent="p3wo7nI9Xod3fC34lsyC-60">
          <mxGeometry width="760" height="640" as="geometry" />
        </mxCell>
        <mxCell id="p3wo7nI9Xod3fC34lsyC-45" value="" style="swimlane;html=1;startSize=0;horizontal=0;" vertex="1" parent="p3wo7nI9Xod3fC34lsyC-44">
          <mxGeometry y="40" width="760" height="600" as="geometry">
            <mxRectangle y="40" width="480" height="20" as="alternateBounds" />
          </mxGeometry>
        </mxCell>
        <mxCell id="p3wo7nI9Xod3fC34lsyC-49" value="" style="edgeStyle=none;rounded=0;orthogonalLoop=1;jettySize=auto;html=1;fontSize=14;endArrow=none;endFill=0;fontColor=#007FFF;" edge="1" parent="p3wo7nI9Xod3fC34lsyC-45" source="p3wo7nI9Xod3fC34lsyC-47">
          <mxGeometry relative="1" as="geometry">
            <mxPoint x="320" y="58" as="targetPoint" />
          </mxGeometry>
        </mxCell>
        <mxCell id="p3wo7nI9Xod3fC34lsyC-50" value="1" style="edgeLabel;html=1;align=center;verticalAlign=middle;resizable=0;points=[];fontSize=12;fontColor=#9933FF;" vertex="1" connectable="0" parent="p3wo7nI9Xod3fC34lsyC-49">
          <mxGeometry x="-0.7422" relative="1" as="geometry">
            <mxPoint as="offset" />
          </mxGeometry>
        </mxCell>
        <mxCell id="p3wo7nI9Xod3fC34lsyC-51" value="N" style="edgeLabel;html=1;align=center;verticalAlign=middle;resizable=0;points=[];fontSize=12;fontColor=#9933FF;" vertex="1" connectable="0" parent="p3wo7nI9Xod3fC34lsyC-49">
          <mxGeometry x="0.8244" y="-1" relative="1" as="geometry">
            <mxPoint y="-1" as="offset" />
          </mxGeometry>
        </mxCell>
        <mxCell id="p3wo7nI9Xod3fC34lsyC-52" value="" style="rounded=0;orthogonalLoop=1;jettySize=auto;html=1;fontSize=14;startArrow=none;startFill=0;endArrow=none;endFill=0;endSize=6;startSize=6;entryX=0.5;entryY=0;entryDx=0;entryDy=0;exitX=0.5;exitY=1;exitDx=0;exitDy=0;fontColor=#007FFF;" edge="1" parent="p3wo7nI9Xod3fC34lsyC-45" source="p3wo7nI9Xod3fC34lsyC-47">
          <mxGeometry relative="1" as="geometry">
            <mxPoint x="250" y="186" as="targetPoint" />
          </mxGeometry>
        </mxCell>
        <mxCell id="p3wo7nI9Xod3fC34lsyC-53" value="N" style="edgeLabel;html=1;align=center;verticalAlign=middle;resizable=0;points=[];fontSize=12;fontColor=#9933FF;" vertex="1" connectable="0" parent="p3wo7nI9Xod3fC34lsyC-52">
          <mxGeometry x="-0.7904" y="-1" relative="1" as="geometry">
            <mxPoint x="5.9399999999999995" y="2.34" as="offset" />
          </mxGeometry>
        </mxCell>
        <mxCell id="p3wo7nI9Xod3fC34lsyC-54" value="1" style="edgeLabel;html=1;align=center;verticalAlign=middle;resizable=0;points=[];fontSize=12;fontColor=#9933FF;" vertex="1" connectable="0" parent="p3wo7nI9Xod3fC34lsyC-52">
          <mxGeometry x="0.6743" relative="1" as="geometry">
            <mxPoint x="-6.93" y="-5.529999999999999" as="offset" />
          </mxGeometry>
        </mxCell>
        <mxCell id="p3wo7nI9Xod3fC34lsyC-55" style="edgeStyle=none;rounded=0;orthogonalLoop=1;jettySize=auto;html=1;exitX=0.5;exitY=1;exitDx=0;exitDy=0;entryX=0.5;entryY=0;entryDx=0;entryDy=0;startArrow=none;startFill=0;startSize=6;endArrow=none;endFill=0;endSize=6;fontSize=14;fontColor=#007FFF;" edge="1" parent="p3wo7nI9Xod3fC34lsyC-45" source="p3wo7nI9Xod3fC34lsyC-46">
          <mxGeometry relative="1" as="geometry">
            <mxPoint x="250" y="186" as="targetPoint" />
          </mxGeometry>
        </mxCell>
        <mxCell id="p3wo7nI9Xod3fC34lsyC-56" value="1" style="edgeLabel;html=1;align=center;verticalAlign=middle;resizable=0;points=[];fontColor=#9933FF;" vertex="1" connectable="0" parent="p3wo7nI9Xod3fC34lsyC-55">
          <mxGeometry x="0.7282" y="1" relative="1" as="geometry">
            <mxPoint x="1.75" y="-6.41" as="offset" />
          </mxGeometry>
        </mxCell>
        <mxCell id="p3wo7nI9Xod3fC34lsyC-57" value="1" style="edgeLabel;html=1;align=center;verticalAlign=middle;resizable=0;points=[];fontColor=#9933FF;" vertex="1" connectable="0" parent="p3wo7nI9Xod3fC34lsyC-55">
          <mxGeometry x="-0.7912" y="2" relative="1" as="geometry">
            <mxPoint x="-7.640000000000001" as="offset" />
          </mxGeometry>
        </mxCell>
      </root>
    </mxGraphModel>
  </diagram>
  <diagram id="ifltd5Z_LCURpHxcDw9M" name="合同审批">
    <mxGraphModel dx="9825" dy="7613" grid="1" gridSize="10" guides="1" tooltips="1" connect="1" arrows="1" fold="1" page="1" pageScale="1" pageWidth="827" pageHeight="1169" math="0" shadow="0">
      <root>
        <mxCell id="wC5T7cFP7hEG3YRZ0Djn-0" />
        <mxCell id="wC5T7cFP7hEG3YRZ0Djn-1" parent="wC5T7cFP7hEG3YRZ0Djn-0" />
      </root>
    </mxGraphModel>
  </diagram>
</mxfile>
